<?xml version="1.0" encoding="utf-8"?>
<!-- Generator: Adobe Illustrator 16.0.0, SVG Export Plug-In . SVG Version: 6.00 Build 0)  -->
<!DOCTYPE svg PUBLIC "-//W3C//DTD SVG 1.1//EN" "http://www.w3.org/Graphics/SVG/1.1/DTD/svg11.dtd">
<svg version="1.1" id="Layer_1" xmlns="http://www.w3.org/2000/svg" xmlns:xlink="http://www.w3.org/1999/xlink" x="0px" y="0px"
	 width="50px" height="400px" viewBox="0 0 50 400" enable-background="new 0 0 50 400" xml:space="preserve">
<g>
	<path fill="#606771" d="M41.875,218.068v23.807c0,3.105-2.52,5.625-5.625,5.625H8.125c-3.106,0-5.625-2.52-5.625-5.625V213.75
		c0-3.105,2.519-5.625,5.625-5.625H31.93l-5.621,5.625H8.125v28.125H36.25v-18.18L41.875,218.068z M37.559,206.477l-1.99,1.99
		l5.968,5.967l1.987-1.988L37.559,206.477z M41.534,202.5l-1.988,1.988l5.966,5.967l1.988-1.988L41.534,202.5z M15.684,228.355
		l5.966,5.967l17.896-17.898l-5.966-5.969L15.684,228.355z M13.75,236.25h5.625l-5.625-5.625V236.25z"/>
</g>
<g>
	<g>
		<path fill="#5F6671" d="M13.018,9.994C8.59,9.994,5,13.584,5,18.013v13.26c0,4.312,3.495,7.809,7.808,7.809v-2.763h-0.433
			c-2.547,0-4.61-2.064-4.61-4.61V17.336c0-2.547,2.063-4.611,4.61-4.611h25.287c2.545,0,4.611,2.064,4.611,4.611v14.371
			c0,2.546-2.066,4.61-4.611,4.61h-0.363v2.763c4.254,0,7.701-3.448,7.701-7.701V17.801c0-4.312-3.494-7.808-7.807-7.808H13.018z"/>
		<path fill="#5F6671" d="M14.553,34.588V14.104h-1.636c-1.873,0-3.392,1.519-3.392,3.394v13.7c0,1.874,1.519,3.393,3.392,3.393
			h1.636V34.588z"/>
		<rect x="29.576" y="14.104" fill="#5F6671" width="4.373" height="20.484"/>
		<rect x="20.862" y="14.104" fill="#5F6671" width="3.218" height="20.484"/>
		<rect x="25.911" y="14.104" fill="#5F6671" width="1.831" height="20.484"/>
		<rect x="16.374" y="14.104" fill="#5F6671" width="2.729" height="20.484"/>
		<path fill="#5F6671" d="M16.024,36.021c-0.996,0-1.471,0.884-1.471,1.999c0.007,1.09,0.445,1.986,1.44,1.986
			c0.984,0,1.465-0.819,1.465-2.011C17.458,36.938,17.055,36.021,16.024,36.021z M16.018,39.324c-0.349,0-0.562-0.421-0.557-1.305
			c-0.006-0.896,0.219-1.316,0.551-1.316c0.362,0,0.546,0.45,0.546,1.304C16.557,38.884,16.368,39.324,16.018,39.324z"/>
		<path fill="#5F6671" d="M19.823,36.021c-0.996,0-1.469,0.884-1.469,1.999c0.005,1.09,0.443,1.986,1.44,1.986
			c0.984,0,1.465-0.819,1.465-2.011C21.259,36.938,20.856,36.021,19.823,36.021z M19.818,39.324c-0.35,0-0.563-0.421-0.557-1.305
			c-0.007-0.896,0.219-1.316,0.55-1.316c0.361,0,0.547,0.45,0.547,1.304C20.357,38.884,20.168,39.324,19.818,39.324z"/>
		<polygon fill="#5F6671" points="22.068,36.555 22.217,37.242 22.952,36.902 22.964,36.902 22.964,39.943 23.826,39.943 
			23.826,36.075 23.089,36.075 		"/>
		<path fill="#5F6671" d="M26.383,39.187l0.359-0.297c0.557-0.498,1.027-1.013,1.027-1.66c0-0.699-0.479-1.209-1.353-1.209
			c-0.521,0-0.973,0.177-1.262,0.397l0.255,0.647c0.201-0.155,0.49-0.32,0.824-0.32c0.443,0,0.634,0.249,0.634,0.564
			c-0.013,0.449-0.423,0.884-1.263,1.636l-0.5,0.45v0.549h2.729v-0.759h-1.451V39.187L26.383,39.187z"/>
		<path fill="#5F6671" d="M30.303,36.021c-0.848,0-1.453,0.635-1.453,1.387c0,0.748,0.551,1.205,1.203,1.205
			c0.35,0,0.598-0.101,0.771-0.278l0.021,0.005c-0.076,0.291-0.24,0.539-0.488,0.712c-0.209,0.143-0.481,0.22-0.756,0.236
			c-0.178,0.013-0.281,0.013-0.385,0v0.706c0.102,0.006,0.25,0.013,0.402,0c0.6-0.023,1.104-0.207,1.469-0.539
			c0.422-0.386,0.676-0.974,0.676-1.773C31.762,36.778,31.293,36.021,30.303,36.021z M30.795,37.716
			c-0.082,0.136-0.254,0.255-0.496,0.255c-0.371,0-0.547-0.283-0.547-0.615c-0.006-0.404,0.219-0.676,0.527-0.676
			c0.408,0,0.563,0.403,0.563,0.812C30.844,37.604,30.826,37.663,30.795,37.716z"/>
		<path fill="#5F6671" d="M34.932,37.687c-0.272-0.196-0.647-0.279-1.016-0.279c-0.092,0-0.164,0.005-0.248,0.017l0.084-0.589h1.51
			v-0.761h-2.141l-0.254,2.027c0.158-0.023,0.307-0.033,0.52-0.033c0.771,0,1.086,0.245,1.086,0.644
			c0,0.408-0.397,0.586-0.771,0.586c-0.349,0-0.699-0.105-0.869-0.189l-0.162,0.678c0.213,0.111,0.604,0.219,1.074,0.219
			c1.039,0,1.653-0.634,1.653-1.352C35.398,38.203,35.221,37.882,34.932,37.687z"/>
	</g>
	<path fill="#5F6671" d="M35.746,14.104v20.484h1.373c1.873,0,3.393-1.519,3.393-3.393V17.497c0-1.875-1.52-3.394-3.393-3.394
		L35.746,14.104L35.746,14.104z"/>
</g>
<path fill="#606771" d="M44.956,119.919l-1.644-10.348c-0.236-1.485-1.4-2.648-2.886-2.884l-10.348-1.645
	c-1.099-0.174-2.216,0.188-3,0.974L6.018,127.081c-1.356,1.356-1.356,3.555,0,4.911l11.992,11.992c1.356,1.356,3.554,1.356,4.911,0
	l21.062-21.063C44.77,122.134,45.131,121.019,44.956,119.919z M22.019,141.295c-0.529,0.529-1.389,0.529-1.919,0L8.705,129.901
	c-0.53-0.53-0.53-1.391,0-1.92c0.53-0.53,1.39-0.53,1.919,0l11.394,11.394C22.549,139.907,22.548,140.767,22.019,141.295z
	 M37.348,116.353c-1.021,1.021-2.678,1.021-3.699,0c-1.021-1.021-1.021-2.677,0-3.698c1.021-1.021,2.678-1.021,3.699,0
	C38.368,113.675,38.368,115.331,37.348,116.353z"/>
<g>
	<path fill="#606771" d="M44.123,190.228l-3.491-20.859c-0.327-1.967-2.032-3.405-4.024-3.405h-5.248
		c0.615-1.071,0.969-2.313,0.969-3.635c0-4.041-3.287-7.328-7.328-7.328s-7.328,3.287-7.328,7.328c0,1.321,0.352,2.563,0.967,3.635
		h-5.247c-1.995,0-3.697,1.44-4.025,3.406l-3.491,20.862c-0.198,1.185,0.135,2.4,0.911,3.315C7.562,194.463,8.701,195,9.902,195
		H40.1c1.201,0,2.34-0.536,3.116-1.452C43.99,192.63,44.323,191.412,44.123,190.228z M25,159.269c1.686,0,3.057,1.373,3.057,3.061
		s-1.371,3.059-3.057,3.059c-1.688,0-3.06-1.373-3.06-3.06C21.94,160.64,23.313,159.269,25,159.269z"/>
</g>
<g>
	<path fill="#606771" d="M25,255c-11.045,0-20,8.955-20,20s8.955,20,20,20s20-8.955,20-20S36.046,255,25,255z M28.059,285.92
		c0,1.678-1.375,3.037-3.05,3.037c-1.676,0-3.048-1.359-3.048-3.037v-13.283c0-1.676,1.373-3.035,3.048-3.035s3.05,1.357,3.05,3.035
		V285.92z M25,267.094c-1.85,0-3.35-1.502-3.35-3.35c0-1.852,1.5-3.35,3.35-3.35c1.85,0,3.35,1.498,3.35,3.35
		C28.35,265.592,26.85,267.094,25,267.094z"/>
</g>
<path fill="#606771" d="M42.5,61.675h-35c-1.378,0-2.5,1.122-2.5,2.5v21.65c0,1.378,1.122,2.5,2.5,2.5h35c1.378,0,2.5-1.122,2.5-2.5
	v-21.65C45,62.797,43.878,61.675,42.5,61.675z M13.449,81.976c0,0.139-0.112,0.25-0.25,0.25h-1c-0.138,0-0.25-0.111-0.25-0.25
	V68.024c0-0.139,0.112-0.25,0.25-0.25h1c0.138,0,0.25,0.111,0.25,0.25V81.976z M16.45,78.975c0,0.139-0.112,0.25-0.25,0.25h-1
	c-0.138,0-0.25-0.111-0.25-0.25V68.024c0-0.139,0.112-0.25,0.25-0.25h1c0.138,0,0.25,0.111,0.25,0.25V78.975z M21.25,81.976
	c0,0.139-0.112,0.25-0.25,0.25h-1c-0.138,0-0.25-0.111-0.25-0.25V68.024c0-0.139,0.112-0.25,0.25-0.25h1
	c0.138,0,0.25,0.111,0.25,0.25V81.976z M24.25,78.975c0,0.139-0.112,0.25-0.25,0.25h-1c-0.138,0-0.25-0.111-0.25-0.25V68.024
	c0-0.139,0.112-0.25,0.25-0.25h1c0.138,0,0.25,0.111,0.25,0.25V78.975z M27.25,78.975c0,0.139-0.111,0.25-0.25,0.25h-1
	c-0.139,0-0.25-0.111-0.25-0.25V68.024c0-0.139,0.111-0.25,0.25-0.25h1c0.139,0,0.25,0.111,0.25,0.25V78.975z M30.25,78.975
	c0,0.139-0.111,0.25-0.25,0.25h-1c-0.139,0-0.25-0.111-0.25-0.25V68.024c0-0.139,0.111-0.25,0.25-0.25h1
	c0.139,0,0.25,0.111,0.25,0.25V78.975z M35.05,78.975c0,0.139-0.11,0.25-0.25,0.25h-1c-0.138,0-0.25-0.111-0.25-0.25V68.024
	c0-0.139,0.112-0.25,0.25-0.25h1c0.14,0,0.25,0.111,0.25,0.25V78.975z M38.051,81.976c0,0.139-0.111,0.25-0.25,0.25H36.8
	c-0.138,0-0.25-0.111-0.25-0.25V68.024c0-0.139,0.112-0.25,0.25-0.25h1.001c0.139,0,0.25,0.111,0.25,0.25V81.976z"/>
<g>
	<path fill="#606771" d="M23.931,314.09c0-5.012-4.078-9.09-9.089-9.09c-5.011,0-9.089,4.078-9.089,9.09
		c0,5.011,4.078,9.088,9.089,9.088C19.853,323.178,23.931,319.101,23.931,314.09z M10.268,314.09c0-2.523,2.052-4.575,4.574-4.575
		s4.575,2.052,4.575,4.575c0,2.521-2.053,4.572-4.575,4.572S10.268,316.611,10.268,314.09z"/>
	<path fill="#606771" d="M35.159,326.822c-5.012,0-9.089,4.077-9.089,9.088c0,5.012,4.077,9.09,9.089,9.09s9.089-4.078,9.089-9.09
		C44.248,330.899,40.171,326.822,35.159,326.822z M35.159,340.485c-2.522,0-4.574-2.052-4.574-4.575
		c0-2.521,2.052-4.572,4.574-4.572c2.521,0,4.574,2.051,4.574,4.572C39.732,338.434,37.681,340.485,35.159,340.485z"/>
	<path fill="#606771" d="M35.438,306.166c-1.179-0.654-2.67-0.232-3.328,0.947l-18.554,33.315c-0.658,1.181-0.233,2.671,0.947,3.329
		c0.377,0.209,0.786,0.309,1.188,0.309c0.859,0,1.692-0.452,2.14-1.256l18.554-33.316C37.044,308.314,36.62,306.824,35.438,306.166z
		"/>
</g>
<g>
	<g>
		<path fill="#606771" d="M44.649,365.398l-9.346-9.692c-0.471-0.486-1.257-0.514-1.745-0.044L5.367,382.854
			c-0.486,0.471-0.486,1.26-0.018,1.747l9.348,9.69c0.469,0.491,1.257,0.517,1.744,0.046l28.191-27.195
			C45.12,366.672,45.12,365.885,44.649,365.398z M16.713,390.654c-0.289,0.28-0.676,0.433-1.078,0.425
			c-0.401-0.009-0.783-0.175-1.062-0.463l-5.56-5.765c-0.58-0.602-0.563-1.56,0.038-2.14l2.558,2.651
			c0.351,0.365,0.929,0.375,1.294,0.026c0.365-0.354,0.373-0.929,0.02-1.297l-2.556-2.647l0.681-0.655l2.556,2.647
			c0.352,0.365,0.931,0.379,1.296,0.026c0.365-0.349,0.371-0.924,0.021-1.292l-2.556-2.648l0.68-0.657l2.557,2.65
			c0.351,0.364,0.93,0.376,1.294,0.027c0.365-0.354,0.372-0.929,0.02-1.297l-2.556-2.647l0.68-0.653l2.557,2.648
			c0.353,0.364,0.931,0.378,1.296,0.026c0.364-0.353,0.373-0.931,0.02-1.296l-2.555-2.649l0.681-0.654l4.257,4.411
			c0.351,0.367,0.929,0.377,1.296,0.028c0.365-0.354,0.372-0.932,0.02-1.297l-4.255-4.415l0.68-0.655l2.557,2.649
			c0.352,0.365,0.929,0.379,1.294,0.026c0.365-0.354,0.373-0.932,0.021-1.295l-2.557-2.647l0.682-0.657l2.557,2.65
			c0.353,0.363,0.931,0.377,1.296,0.025c0.365-0.349,0.372-0.931,0.021-1.295l-2.556-2.65l0.68-0.656l2.556,2.65
			c0.351,0.364,0.932,0.377,1.297,0.025c0.364-0.351,0.369-0.929,0.02-1.294l-2.556-2.65l0.68-0.656l2.555,2.637
			c0.353,0.363,0.93,0.377,1.295,0.024c0.365-0.35,0.372-0.928,0.021-1.294l-2.554-2.65l0.681-0.656l4.254,4.414
			c0.353,0.365,0.954,0.356,1.32,0.005c0.365-0.354,0.395-0.953,0.045-1.316l-4.259-4.416l4.899-4.728
			c0.288-0.279,0.676-0.432,1.076-0.425c0.402,0.008,0.784,0.173,1.063,0.464l5.563,5.763c0.277,0.287,0.432,0.677,0.424,1.076
			c-0.007,0.401-0.176,0.782-0.463,1.063L16.713,390.654z"/>
		<path fill="#606771" d="M33.042,366.834c1.176,1.222,3.123,1.255,4.345,0.078c1.223-1.177,1.254-3.126,0.077-4.346
			c-1.178-1.221-3.126-1.254-4.345-0.078C31.897,363.667,31.863,365.616,33.042,366.834z M34.395,363.811
			c0.49-0.473,1.276-0.456,1.751,0.031c0.472,0.492,0.457,1.275-0.033,1.75c-0.495,0.475-1.279,0.459-1.752-0.029
			C33.888,365.068,33.902,364.283,34.395,363.811z"/>
	</g>
</g>
</svg>
