<?xml version="1.0" encoding="utf-8"?>
<!-- Generator: Adobe Illustrator 16.0.0, SVG Export Plug-In . SVG Version: 6.00 Build 0)  -->
<!DOCTYPE svg PUBLIC "-//W3C//DTD SVG 1.1//EN" "http://www.w3.org/Graphics/SVG/1.1/DTD/svg11.dtd">
<svg version="1.1" id="Layer_1" xmlns="http://www.w3.org/2000/svg" xmlns:xlink="http://www.w3.org/1999/xlink" x="0px" y="0px"
	 width="150px" height="150px" viewBox="0 0 150 150" enable-background="new 0 0 150 150" xml:space="preserve">
<g>
	<g>
		<path fill="#5E6570" d="M33.063,23.015C17.563,23.015,5,35.581,5,51.081V97.49c0,15.094,12.232,27.331,27.325,27.331v-9.67h-1.511
			c-8.915,0-16.139-7.227-16.139-16.139V48.716c0-8.915,7.224-16.142,16.139-16.142h88.501c8.912,0,16.14,7.227,16.14,16.142v50.296
			c0,8.912-7.228,16.139-16.14,16.139h-1.272v9.67c14.891,0,26.957-12.072,26.957-26.956V50.343
			c0-15.093-12.229-27.328-27.322-27.328H33.063z"/>
		<path fill="#5E6570" d="M38.434,109.098V37.402h-5.725c-6.556,0-11.869,5.315-11.869,11.875v47.952
			c0,6.56,5.313,11.875,11.869,11.875h5.725V109.098z"/>
		<rect x="91.018" y="37.402" fill="#5E6570" width="15.302" height="71.695"/>
		<rect x="60.519" y="37.402" fill="#5E6570" width="11.262" height="71.695"/>
		<rect x="78.189" y="37.402" fill="#5E6570" width="6.408" height="71.695"/>
		<rect x="44.81" y="37.402" fill="#5E6570" width="9.551" height="71.695"/>
		<path fill="#5E6570" d="M43.584,114.105c-3.486,0-5.147,3.094-5.147,6.998c0.026,3.816,1.56,6.951,5.043,6.951
			c3.445,0,5.127-2.864,5.127-7.035C48.604,117.321,47.191,114.105,43.584,114.105z M43.561,125.67c-1.22,0-1.969-1.473-1.949-4.566
			c-0.02-3.138,0.767-4.607,1.929-4.607c1.269,0,1.911,1.574,1.911,4.563C45.449,124.133,44.787,125.67,43.561,125.67z"/>
		<path fill="#5E6570" d="M56.882,114.105c-3.488,0-5.141,3.094-5.141,6.998c0.017,3.816,1.551,6.951,5.04,6.951
			c3.445,0,5.127-2.864,5.127-7.035C61.907,117.321,60.496,114.105,56.882,114.105z M56.865,125.67
			c-1.226,0-1.973-1.473-1.949-4.566c-0.023-3.138,0.767-4.607,1.926-4.607c1.264,0,1.911,1.574,1.911,4.563
			C58.752,124.133,58.087,125.67,56.865,125.67z"/>
		<polygon fill="#5E6570" points="64.739,115.977 65.259,118.382 67.833,117.196 67.874,117.196 67.874,127.84 70.892,127.84 
			70.892,114.298 68.312,114.298 		"/>
		<path fill="#5E6570" d="M79.84,125.19l1.255-1.04c1.952-1.743,3.596-3.544,3.596-5.81c0-2.448-1.673-4.235-4.729-4.235
			c-1.818,0-3.403,0.622-4.414,1.392l0.889,2.266c0.709-0.543,1.719-1.121,2.887-1.121c1.557,0,2.219,0.871,2.219,1.976
			c-0.041,1.574-1.476,3.093-4.42,5.725l-1.751,1.578v1.92h9.552v-2.658h-5.077L79.84,125.19L79.84,125.19z"/>
		<path fill="#5E6570" d="M93.557,114.105c-2.963,0-5.084,2.223-5.084,4.857c0,2.617,1.929,4.215,4.212,4.215
			c1.226,0,2.092-0.352,2.696-0.974l0.069,0.018c-0.262,1.017-0.837,1.888-1.708,2.492c-0.727,0.5-1.685,0.767-2.644,0.828
			c-0.621,0.043-0.987,0.043-1.348,0v2.469c0.36,0.023,0.877,0.044,1.412,0c2.097-0.081,3.857-0.723,5.141-1.885
			c1.476-1.351,2.365-3.407,2.365-6.208C98.669,116.764,97.024,114.105,93.557,114.105z M95.281,120.043
			c-0.284,0.477-0.889,0.895-1.736,0.895c-1.296,0-1.912-0.993-1.912-2.155c-0.022-1.414,0.768-2.364,1.842-2.364
			c1.43,0,1.976,1.409,1.976,2.841C95.456,119.654,95.392,119.857,95.281,120.043z"/>
		<path fill="#5E6570" d="M109.759,119.938c-0.958-0.686-2.266-0.976-3.55-0.976c-0.325,0-0.58,0.014-0.871,0.058l0.291-2.063h5.286
			v-2.663h-7.488l-0.895,7.096c0.558-0.081,1.08-0.116,1.824-0.116c2.695,0,3.799,0.86,3.799,2.252c0,1.429-1.394,2.053-2.701,2.053
			c-1.22,0-2.445-0.371-3.044-0.665l-0.563,2.371c0.743,0.392,2.114,0.767,3.759,0.767c3.637,0,5.786-2.217,5.786-4.729
			C111.397,121.745,110.775,120.624,109.759,119.938z"/>
	</g>
	<path fill="#5E6570" d="M112.611,37.402v71.695h4.805c6.559,0,11.875-5.315,11.875-11.874v-47.95
		c0-6.559-5.316-11.875-11.875-11.875L112.611,37.402L112.611,37.402z"/>
</g>
</svg>
